<?xml version="1.0" encoding="UTF-8" standalone="no"?>
<!-- Created with Inkscape (http://www.inkscape.org/) -->

<svg
   width="129.70854mm"
   height="92.918015mm"
   viewBox="0 0 129.70854 92.918015"
   version="1.1"
   id="svg1"
   xml:space="preserve"
   inkscape:version="1.3 (0e150ed6c4, 2023-07-21)"
   sodipodi:docname="HowTo.svg"
   xmlns:inkscape="http://www.inkscape.org/namespaces/inkscape"
   xmlns:sodipodi="http://sodipodi.sourceforge.net/DTD/sodipodi-0.dtd"
   xmlns:xlink="http://www.w3.org/1999/xlink"
   xmlns="http://www.w3.org/2000/svg"
   xmlns:svg="http://www.w3.org/2000/svg"><sodipodi:namedview
     id="namedview1"
     pagecolor="#ffffff"
     bordercolor="#cccccc"
     borderopacity="1"
     inkscape:showpageshadow="0"
     inkscape:pageopacity="1"
     inkscape:pagecheckerboard="0"
     inkscape:deskcolor="#d1d1d1"
     inkscape:document-units="mm"
     inkscape:zoom="0.36213173"
     inkscape:cx="546.76236"
     inkscape:cy="73.17779"
     inkscape:window-width="1920"
     inkscape:window-height="1009"
     inkscape:window-x="-8"
     inkscape:window-y="-8"
     inkscape:window-maximized="1"
     inkscape:current-layer="layer1" /><defs
     id="defs1"><linearGradient
       id="linearGradient1"><stop
         style="stop-color:#220a2e;stop-opacity:1;"
         offset="0"
         id="stop3" /><stop
         style="stop-color:#34043c;stop-opacity:1;"
         offset="1"
         id="stop4" /></linearGradient><linearGradient
       inkscape:collect="always"
       xlink:href="#linearGradient1"
       id="linearGradient6-1"
       x1="97.38504"
       y1="41.459682"
       x2="103.06799"
       y2="185.08325"
       gradientUnits="userSpaceOnUse"
       gradientTransform="translate(-31.296976,-152.94871)" /></defs><g
     inkscape:label="Layer 1"
     inkscape:groupmode="layer"
     id="layer1"
     transform="translate(-4.3165685,119.5503)"><g
       id="g57"
       inkscape:export-filename="..\..\..\Users\Pavel\HowTo1.svg"
       inkscape:export-xdpi="100"
       inkscape:export-ydpi="100"><path
         style="opacity:1;fill:url(#linearGradient6-1);fill-rule:evenodd;stroke-width:0.4;stroke-linejoin:round;paint-order:stroke fill markers"
         d="m 4.3165685,-119.55031 129.7085415,4.3157 -1.29158,88.602312 H 6.1588075 Z"
         id="path1-3"
         sodipodi:nodetypes="ccccc" /><path
         id="path6-8"
         style="opacity:1;fill:#e222a9;fill-opacity:1;fill-rule:evenodd;stroke:none;stroke-width:0.4;stroke-linejoin:round;paint-order:stroke fill markers"
         d="m 11.99255,-114.04265 -0.236678,17.465082 c 3.951083,0.18958 7.869551,0.566844 11.754838,1.115178 1.311414,-3.112233 2.705899,-6.11335 4.222998,-8.94416 1.487777,3.12807 4.734055,7.999918 7.311181,9.268688 4.947288,-0.783655 8.580167,-3.964263 11.625647,-6.888468 0.256322,4.076091 0.333892,8.006857 0.296623,11.843204 7.151449,2.164646 14.191692,4.756751 21.122742,7.625375 l -0.96945,1.865519 c -5.884184,0.176305 -13.030599,-0.243243 -20.430794,-1.067119 -0.403499,6.957492 -1.185565,13.598127 -2.127002,20.090247 1.381155,2.77178 2.764694,5.330782 6.088,7.746297 2.865603,-1.474264 4.784359,-3.382794 7.47758,-6.021338 0.848673,0.04928 1.561731,0.295929 2.130619,0.752926 0.522361,-1.31202 1.190185,-2.624174 2.375566,-3.936194 1.115296,0.0803 2.131624,0.210411 3.061828,0.383439 l 2.052588,-8.694043 15.11484,0.913123 -8.402588,23.97373 -12.619901,0.136943 0.395841,-1.676384 c -0.431414,-0.113964 -0.824544,-0.278058 -1.190108,-0.478523 -0.113327,0.502631 -0.23768,1.021476 -0.376205,1.561145 -3.00333,3.214318 -7.155725,4.951604 -11.964127,5.845121 -2.700587,-0.43078 -4.976813,-1.164607 -7.118946,-1.994194 -0.579605,3.512063 -1.128806,7.038014 -1.642277,10.584884 l 45.840613,0.872815 c 0.277973,-1.584872 0.521688,-3.171016 0.745174,-4.752165 l -2.495455,-0.136426 0.08578,0.946713 -3.131591,0.420129 -0.516765,-4.956803 3.196704,-0.435633 0.143661,1.580266 3.155879,-0.643889 c 0.175251,-1.334542 0.348144,-2.657784 0.524516,-3.973401 -1.409693,-0.04487 -2.802743,-0.120507 -4.163053,-0.224275 l -0.467155,-1.291394 c 2.060993,-0.750188 3.690224,-1.37106 5.105631,-1.86552 0.250963,-1.666568 0.525993,-3.30881 0.850595,-4.915462 1.297035,1.586127 2.802522,2.750359 4.779036,3.487126 1.690773,-0.948647 2.656205,-2.804026 3.680912,-4.58525 1.059021,1.776141 1.867184,3.639788 2.497522,5.565035 1.142051,0.282303 2.422871,0.634434 3.904161,1.066085 l -0.38706,1.538407 c -0.87123,0.191696 -1.75828,0.356731 -2.65565,0.501262 0.96898,4.184311 1.30291,8.589374 1.65158,12.989388 l 1.39888,0.02687 c 1.04681,-5.605423 2.07989,-11.769045 3.41684,-17.727083 l -3.0086,-1.187524 -0.29714,0.730704 -2.80809,-1.096057 1.14153,-5.388301 3.01377,1.073319 -0.63924,2.831352 3.06493,1.027327 c 0.44496,-1.858546 0.92533,-3.680339 1.44901,-5.445662 -2.17482,-0.935267 -4.24844,-1.935094 -5.88388,-2.910934 l -0.13695,-1.392679 c 2.35144,-0.199823 4.89945,-0.254296 7.45795,-0.07596 0.9887,-2.678676 2.11862,-5.139388 3.43338,-7.268807 0.46544,1.70574 1.27136,3.930938 2.37298,5.327324 1.26558,-1.291976 2.50382,-2.837949 3.6003,-4.552694 0.57694,2.564903 0.92072,5.362034 1.10949,8.333341 1.82344,0.393724 3.91512,0.878023 5.66167,1.366325 l 1.34256,-53.953817 z m -0.343132,25.345738 -0.386023,28.485083 c 2.944184,-8.590383 5.65822,-17.602478 8.73125,-26.162744 -3.029253,-0.736129 -5.828397,-1.516925 -8.345227,-2.322339 z m 57.012541,22.053435 -1.030945,4.358907 c 1.426861,0.425483 2.582603,0.986906 3.496944,1.669148 l -0.959114,4.10931 -3.59823,-1.295528 -1.927015,8.145239 8.402072,-0.09095 5.068941,-16.896126 z m 57.874501,12.964066 -5.37641,0.121957 c 0.0623,6.993271 -0.41514,14.689576 -0.63046,22.519555 l 5.44102,0.10387 z" /><path
         style="fill:#ffe204;fill-opacity:1;fill-rule:evenodd;stroke:none;stroke-width:0.4;stroke-linejoin:round;paint-order:stroke fill markers"
         d="m 22.238966,-83.84924 c 5.101735,1.227 19.811391,4.01682 22.215155,4.262211 -0.47,1.375518 -3.09979,3.680999 -5.230895,4.455945 -0.678079,-1.000972 -3.422684,-4.324893 -4.972579,-5.520553 -1.323867,1.226054 -5.327761,3.776922 -7.361998,4.196684 -2.343545,-0.958449 -4.236625,-4.913466 -4.649683,-7.394287 z"
         id="path9-9"
         sodipodi:nodetypes="cccccc" /><path
         style="opacity:1;fill:#ffe204;fill-opacity:1;fill-rule:evenodd;stroke:none;stroke-width:0.4;stroke-linejoin:round;paint-order:stroke fill markers"
         d="m 19.849546,-62.925668 -0.516634,2.09882 c 1.536331,0.53698 3.098349,1.03543 4.133054,2.32484 l -1.227,4.908 c -1.728033,0.9653 -3.169418,0.87956 -4.649684,0.93639 l -0.161449,1.09785 c 1.777738,1.59123 3.92821,2.15027 6.264158,2.19568 l 1.711341,-4.2945 c -0.432805,-0.36348 -0.880296,-0.71881 -0.936395,-1.29158 l 0.968685,-3.00292 c 0.58121,-0.10763 1.05479,-0.10763 1.420738,0 l 1.16242,-2.93834 c -2.45905,-1.57577 -5.28509,-1.90378 -8.169234,-2.03424 z"
         id="path11-5"
         sodipodi:nodetypes="ccccccccccccc" /><path
         style="opacity:1;fill:#ffe204;fill-opacity:1;fill-rule:evenodd;stroke:none;stroke-width:0.4;stroke-linejoin:round;paint-order:stroke fill markers"
         d="m 101.88094,-55.668608 c 0.16957,0.0354 2.70424,1.11399 2.70424,1.11399 l -1.01712,5.25511 0.64579,-0.31482 c 0,0 1.29965,-5.54572 1.26736,-5.53765 -0.0323,0.008 -3.22894,-1.17856 -3.22894,-1.17856 z"
         id="path19-0" /><path
         style="opacity:1;fill:#ffe204;fill-opacity:1;fill-rule:evenodd;stroke:none;stroke-width:0.4;stroke-linejoin:round;paint-order:stroke fill markers"
         d="m 80.4205,-40.409268 3.40198,-0.61076 0.55757,5.47583 -0.45193,0.19754 -0.5052,-4.83429 -3.18508,0.43912 z"
         id="path22-5"
         sodipodi:nodetypes="ccccccc" /><path
         style="opacity:1;fill:#ffe204;fill-opacity:1;fill-rule:evenodd;stroke:none;stroke-width:0.4;stroke-linejoin:round;paint-order:stroke fill markers"
         d="m 87.694839,-45.145528 11.07017,-0.63443 c -0.7559,1.41495 -1.59433,2.78038 -2.7769,3.93932 -1.1948,-0.30958 -1.9065,-1.31414 -2.71565,-2.13791 -0.90005,0.75676 -1.71206,1.54554 -3.06417,2.13791 -1.77506,-0.89335 -1.7731,-2.1816 -2.51345,-3.30489 z"
         id="path24-2"
         sodipodi:nodetypes="cccccc" /><path
         style="opacity:1;fill:#ffe204;fill-opacity:1;fill-rule:evenodd;stroke:none;stroke-width:0.4;stroke-linejoin:round;paint-order:stroke fill markers"
         d="m 110.38921,-57.565608 10.04203,0.96868 c -0.0885,1.95754 -1.87697,2.9707 -3.45498,4.10076 -0.95427,-0.87836 -1.89364,-1.7901 -2.58315,-3.26123 -0.9493,1.0638 -2.17772,1.68899 -3.42269,2.28816 -0.62911,-1.43076 -0.81313,-2.79476 -0.58121,-4.09637 z"
         id="path25-3"
         sodipodi:nodetypes="cccccc" /><path
         style="opacity:1;fill:#ffe204;fill-opacity:1;fill-rule:evenodd;stroke:none;stroke-width:0.4;stroke-linejoin:round;paint-order:stroke fill markers"
         d="m 76.361239,-100.5106 0.38747,11.559623 7.23285,-1.09784 0.0646,-2.389423 -5.8121,1.420738 -0.19374,-9.815998 z"
         id="path26-4" /><path
         style="opacity:1;fill:#ffe204;fill-opacity:1;fill-rule:evenodd;stroke:none;stroke-width:0.4;stroke-linejoin:round;paint-order:stroke fill markers"
         d="m 86.500129,-101.67302 0.25832,11.301308 2.1311,-0.193739 -0.193731,-11.430469 z"
         id="path27-3" /><path
         style="opacity:1;fill:#ffe204;fill-opacity:1;fill-rule:evenodd;stroke:none;stroke-width:0.4;stroke-linejoin:round;paint-order:stroke fill markers"
         d="m 91.666448,-101.99592 0.25831,10.978418 1.93737,-0.516633 -0.32289,-7.103678 5.23089,6.974521 2.066532,-0.258315 0.12916,-10.590943 -1.937372,-0.3229 v 8.976474 l -5.42463,-8.136944 z"
         id="path28-5" /><path
         style="opacity:1;fill:#ffe204;fill-opacity:1;fill-rule:evenodd;stroke:none;stroke-width:0.4;stroke-linejoin:round;paint-order:stroke fill markers"
         d="m 104.71139,-102.83545 c 0,0.83953 -0.25831,10.784684 -0.25831,10.784684 l 1.80821,0.129159 v -5.004866 l 6.49252,5.456917 1.19237,-1.291577 -6.135,-4.84342 6.97453,-4.391367 -1.09784,-1.42074 -7.23284,4.585107 v -4.003897 z"
         id="path29-7" /><path
         style="opacity:1;fill:#ffe204;fill-opacity:1;fill-rule:evenodd;stroke:none;stroke-width:0.4;stroke-linejoin:round;paint-order:stroke fill markers"
         d="m 95.799498,-87.594818 c 0.19374,0.581211 2.97063,6.651631 2.97063,6.651631 l -2.454,-1.227 -0.71037,1.937366 4.908002,2.583159 3.00945,-7.426579 -2.00923,-0.193736 -1.12937,2.276883 -2.776902,-5.957883 z"
         id="path30-9" /></g></g></svg>
