<?xml version="1.0" encoding="UTF-8" standalone="no"?>
<!-- Created with Inkscape (http://www.inkscape.org/) -->

<svg
   width="129.70856mm"
   height="92.918022mm"
   viewBox="0 0 129.70856 92.918022"
   version="1.1"
   id="svg1"
   xml:space="preserve"
   inkscape:version="1.3 (0e150ed6c4, 2023-07-21)"
   sodipodi:docname="HowTo.svg"
   xmlns:inkscape="http://www.inkscape.org/namespaces/inkscape"
   xmlns:sodipodi="http://sodipodi.sourceforge.net/DTD/sodipodi-0.dtd"
   xmlns:xlink="http://www.w3.org/1999/xlink"
   xmlns="http://www.w3.org/2000/svg"
   xmlns:svg="http://www.w3.org/2000/svg"><sodipodi:namedview
     id="namedview1"
     pagecolor="#ffffff"
     bordercolor="#cccccc"
     borderopacity="1"
     inkscape:showpageshadow="0"
     inkscape:pageopacity="1"
     inkscape:pagecheckerboard="0"
     inkscape:deskcolor="#d1d1d1"
     inkscape:document-units="mm"
     inkscape:zoom="0.36213173"
     inkscape:cx="546.76236"
     inkscape:cy="73.17779"
     inkscape:window-width="1920"
     inkscape:window-height="1009"
     inkscape:window-x="-8"
     inkscape:window-y="-8"
     inkscape:window-maximized="1"
     inkscape:current-layer="layer1" /><defs
     id="defs1"><linearGradient
       id="linearGradient1"><stop
         style="stop-color:#220a2e;stop-opacity:1;"
         offset="0"
         id="stop3" /><stop
         style="stop-color:#34043c;stop-opacity:1;"
         offset="1"
         id="stop4" /></linearGradient><linearGradient
       inkscape:collect="always"
       xlink:href="#linearGradient1"
       id="linearGradient41"
       gradientUnits="userSpaceOnUse"
       gradientTransform="translate(131.72938,-150.92283)"
       x1="97.38504"
       y1="41.459682"
       x2="103.06799"
       y2="185.08325" /></defs><g
     inkscape:label="Layer 1"
     inkscape:groupmode="layer"
     id="layer1"
     transform="translate(-167.34291,117.52443)"><g
       id="g58"><path
         style="opacity:1;fill:url(#linearGradient41);fill-rule:evenodd;stroke-width:0.4;stroke-linejoin:round;paint-order:stroke fill markers"
         d="m 167.34292,-117.52444 129.70856,4.31571 -1.29158,88.60231 H 169.18516 Z"
         id="path1-2-3-1"
         sodipodi:nodetypes="ccccc" /><path
         id="path6-0-6-6"
         style="opacity:1;fill:#e222a9;fill-opacity:1;fill-rule:evenodd;stroke:none;stroke-width:0.4;stroke-linejoin:round;paint-order:stroke fill markers"
         d="m 175.01929,-112.01694 -0.61857,45.676287 c 6.12409,-1.016445 12.21877,-2.111781 17.74414,-4.724777 2.3957,-3.166147 4.76671,-6.012878 7.39748,-12.234912 4.09546,3.557777 6.78097,7.468149 12.60337,10.594186 6.79522,-1.809209 11.09385,-5.615785 15.52566,-9.315711 1.25172,3.080417 0.66966,5.549552 4.52583,9.498128 6.13486,1.583029 12.36194,3.166036 20.40702,4.749065 l 0.82165,3.013769 c -5.46838,0.916409 -9.67223,0.839602 -13.9733,0.822172 0.84366,11.363382 0.40622,22.727046 0.18603,34.090426 l 16.37265,0.311609 c 1.79219,-15.202432 4.57184,-31.566398 3.73982,-43.681572 l -4.29483,-1.000972 c -3.98436,-15.218425 -12.29118,-14.339857 -20.47162,-13.94902 l 0.25839,-7.168554 c -4.89663,-1.868177 -8.13698,-4.712054 -11.17193,-7.426424 0.38423,-2.47591 1.21201,-5.40077 2.30373,-8.20208 z m 115.29736,30.08189 c -2.48846,0.648639 -5.0904,1.486375 -7.86619,2.613793 -3.54052,2.526614 -7.5114,5.330032 -11.3776,11.043254 -1.3349,9.49033 -1.80592,18.260888 -2.02778,26.823686 1.12887,-0.380337 2.33852,-0.688203 3.67574,-0.882117 0.51091,-0.891147 1.08321,-1.796632 1.73375,-2.720247 1.25179,0.827926 2.14059,1.855643 2.85408,2.922819 0.73804,-0.69861 1.44825,-1.441751 2.35128,-1.872237 -0.0712,0.949307 -0.14752,1.889668 -0.22272,2.833418 1.34919,0.374688 2.43157,1.004391 3.44888,1.696538 -1.18272,0.435264 -2.40885,0.632537 -3.64319,0.783931 -0.25372,3.225177 -0.47296,6.417942 -0.56069,9.587529 l 10.31462,0.19637 z m -115.98517,20.698478 -0.40825,30.136662 13.52424,0.257348 c 1.51001,-8.80657 2.20683,-18.775136 2.41381,-29.443164 -5.1767,0.2209 -10.35311,-0.270835 -15.5298,-0.950846 z m 94.66037,21.981604 c -0.0489,2.282751 -0.0871,4.556795 -0.11834,6.824906 0.55419,-2.11907 1.19105,-4.256991 2.1363,-6.466272 -0.80914,-0.112407 -1.43379,-0.234418 -2.01796,-0.358634 z" /><path
         style="opacity:1;fill:#ffe204;fill-opacity:1;fill-rule:evenodd;stroke:none;stroke-width:0.4;stroke-linejoin:round;paint-order:stroke fill markers"
         d="m 271.07298,-39.96387 c 0.80164,-0.12207 7.95282,-0.40007 8.24796,0.27636 -0.63009,0.19383 -1.42503,0.40501 -2.19445,0.57975 -0.73126,-0.23164 -1.53666,-0.51624 -2.03816,-0.75569 -0.52478,0.19439 -1.24707,0.46184 -1.82469,0.63046 -0.92197,-0.16231 -1.69364,-0.47751 -2.19066,-0.73088 z"
         id="path33-2-2"
         sodipodi:nodetypes="cccccc" /><path
         style="opacity:1;fill:#ffe204;fill-opacity:1;fill-rule:evenodd;stroke:none;stroke-width:0.4;stroke-linejoin:round;paint-order:stroke fill markers"
         d="m 196.6895,-62.46608 c 3.06128,1.94774 6.48669,3.81882 11.17215,5.42463 2.32552,-0.49578 4.57238,-0.9129 7.81406,-2.32484 4.28506,0.14936 7.69928,1.16956 10.78468,2.51858 -2.82961,1.80096 -5.26972,3.89405 -8.71816,5.23089 -2.78183,-0.66627 -5.22476,-1.89736 -7.49116,-3.42268 -3.22559,1.44514 -6.15986,3.13997 -8.78273,5.10173 -7.49093,-1.53398 -8.27653,-8.28795 -4.77884,-12.52831 z"
         id="path34-6-7"
         sodipodi:nodetypes="cccccccc" /><path
         style="opacity:1;fill:#ffe204;fill-opacity:1;fill-rule:evenodd;stroke:none;stroke-width:0.4;stroke-linejoin:round;paint-order:stroke fill markers"
         d="m 221.13263,-44.51314 c 0,-0.35518 -0.35519,-3.39039 -0.35519,-3.39039 4.27298,0.19031 8.54595,0.35375 12.81893,1.54989 l -0.0646,3.61642 c -1.14626,-0.12196 -2.41725,-0.41022 -3.74559,-0.77494 l -0.16144,2.32484 c 0.61327,0.82009 1.55484,1.46036 3.06818,2.10044 v 0.77495 c -0.93805,0.18028 -2.01369,0.15419 -3.06818,0.15982 l 0.48434,1.87279 c 0.66275,0.59993 1.36458,0.8872 2.0881,1.00097 l -0.27989,1.19471 c -3.0082,0.68735 -5.96376,0.63785 -8.91189,0.48434 l -0.9364,-5.97355 2.35713,-1.42073 0.0323,-2.32485 -1.44127,-1.02151 z"
         id="path35-6-7"
         sodipodi:nodetypes="cccccccccccccccccc" /><path
         id="path55-9"
         style="opacity:1;fill:#ffe204;fill-opacity:1;fill-rule:evenodd;stroke:none;stroke-width:0.4;stroke-linejoin:round;paint-order:stroke fill markers"
         d="m 193.50279,-107.78927 c -6.57713,-0.006 -9.88839,4.68021 -9.94409,10.412798 -0.0396,4.074546 2.84145,9.363801 8.94416,9.492961 6.1027,0.12916 10.33278,-4.520871 10.65568,-9.364286 0.32289,-4.843413 -2.00194,-10.203073 -9.00876,-10.525963 -0.21896,-0.0101 -0.43482,-0.0153 -0.64699,-0.0155 z m -0.709,1.8557 -0.32297,10.720274 8.36279,-5.134054 c 0.86471,3.187987 -2.16719,8.75779 -7.1701,9.299174 -5.09056,0.550869 -8.76159,-3.593049 -8.23206,-7.877555 0.45552,-3.685749 3.30372,-7.324859 7.36234,-7.007839 z"
         sodipodi:nodetypes="cssssccccsscc" /></g></g></svg>
