<?xml version="1.0" encoding="UTF-8" standalone="no"?>
<!-- Created with Inkscape (http://www.inkscape.org/) -->

<svg
   width="129.70856mm"
   height="92.918015mm"
   viewBox="0 0 129.70856 92.918015"
   version="1.1"
   id="svg1"
   xml:space="preserve"
   inkscape:version="1.3 (0e150ed6c4, 2023-07-21)"
   sodipodi:docname="HowTo.svg"
   xmlns:inkscape="http://www.inkscape.org/namespaces/inkscape"
   xmlns:sodipodi="http://sodipodi.sourceforge.net/DTD/sodipodi-0.dtd"
   xmlns:xlink="http://www.w3.org/1999/xlink"
   xmlns="http://www.w3.org/2000/svg"
   xmlns:svg="http://www.w3.org/2000/svg"><sodipodi:namedview
     id="namedview1"
     pagecolor="#ffffff"
     bordercolor="#cccccc"
     borderopacity="1"
     inkscape:showpageshadow="0"
     inkscape:pageopacity="1"
     inkscape:pagecheckerboard="0"
     inkscape:deskcolor="#d1d1d1"
     inkscape:document-units="mm"
     inkscape:zoom="0.36213173"
     inkscape:cx="546.76236"
     inkscape:cy="73.17779"
     inkscape:window-width="1920"
     inkscape:window-height="1009"
     inkscape:window-x="-8"
     inkscape:window-y="-8"
     inkscape:window-maximized="1"
     inkscape:current-layer="layer1" /><defs
     id="defs1"><linearGradient
       id="linearGradient1"><stop
         style="stop-color:#220a2e;stop-opacity:1;"
         offset="0"
         id="stop3" /><stop
         style="stop-color:#34043c;stop-opacity:1;"
         offset="1"
         id="stop4" /></linearGradient><linearGradient
       inkscape:collect="always"
       xlink:href="#linearGradient1"
       id="linearGradient56"
       gradientUnits="userSpaceOnUse"
       gradientTransform="translate(283.11408,-145.4728)"
       x1="97.38504"
       y1="41.459682"
       x2="103.06799"
       y2="185.08325" /></defs><g
     inkscape:label="Layer 1"
     inkscape:groupmode="layer"
     id="layer1"
     transform="translate(-318.72764,112.07441)"><g
       id="g59"><path
         style="opacity:1;fill:url(#linearGradient56);fill-rule:evenodd;stroke-width:0.4;stroke-linejoin:round;paint-order:stroke fill markers"
         d="m 318.72763,-112.07441 129.70855,4.31571 -1.29158,88.602303 H 320.56987 Z"
         id="path1-2-33-1"
         sodipodi:nodetypes="ccccc" /><path
         id="path6-0-2-8"
         style="opacity:1;fill:#e222a9;fill-opacity:1;fill-rule:evenodd;stroke:none;stroke-width:0.4;stroke-linejoin:round;paint-order:stroke fill markers"
         d="m 326.40385,-106.56714 -1.09606,80.917026 7.26312,0.138493 -1.32808,-9.57926 -2.92282,0.04599 -0.82165,-2.283582 3.42459,-0.821655 1.41542,-4.657597 5.70818,2.237073 3.05976,-3.059245 3.97237,5.068941 2.78587,0.639238 -0.31987,2.146122 -2.05466,0.639237 3.13366,9.93066 5.83065,0.111105 c 1.62182,-10.523966 3.06733,-20.792434 5.03174,-31.814596 -4.83666,-4.432188 -9.65877,-8.951385 -14.2689,-14.742769 l 1.29811,-1.517737 c -0.57131,-0.06418 -1.36947,-0.151166 -1.70584,-0.190686 -1.40834,-0.763928 -4.12307,-3.435007 -3.90053,-3.620451 0.0888,-3.278301 0.22243,-6.533672 1.93735,-8.998934 l 2.14147,0.586011 1.91203,-0.866614 c 2.33267,0.399196 3.35935,1.279684 4.43642,2.141472 0.18591,1.684056 0.46288,3.124935 0.817,4.360457 l 1.06919,-1.250053 c 3.82964,3.773851 6.77517,5.927569 9.52035,7.713224 0.47543,-2.155554 0.97033,-4.338659 1.50791,-6.584611 -3.09103,-0.730303 -6.18699,-1.442369 -9.0413,-3.040641 l -0.61134,-1.37666 c 0.14824,-0.127071 8.41482,-2.110915 12.91446,-3.127975 0.92065,-4.450816 1.81126,-6.322804 3.04426,-8.497155 3.452,1.81036 8.39271,5.082557 14.07304,8.259961 3.03492,-3.326069 5.91522,-6.188917 8.56589,-8.362281 2.2857,2.430186 4.09433,5.325211 5.12888,7.585067 2.94098,0.577495 5.99533,1.235535 9.55601,2.255676 l -0.81597,1.784387 c -2.67068,1.387091 -4.75578,2.326645 -6.47868,2.988965 0.4329,1.327334 0.85142,2.656443 1.25678,3.986837 2.58398,-1.715616 5.3799,-3.820554 8.94364,-7.332369 l 1.0697,1.250053 c 0.3541,-1.235523 0.63109,-2.676402 0.817,-4.360457 1.07706,-0.861787 2.10375,-1.742275 4.43642,-2.141472 l 1.91203,0.866614 2.14147,-0.586011 c 1.71491,2.465262 1.84845,5.72115 1.93735,8.999451 0.22253,0.185445 -2.4922,2.856523 -3.90053,3.620451 -0.33628,0.0395 -1.13475,0.126536 -1.70584,0.190686 l 1.29811,1.51722 c -4.15087,5.214464 -8.47368,9.399044 -12.82402,13.416752 2.93103,12.580692 4.90251,25.267759 6.52776,37.993547 l 4.04058,0.077 3.13573,-17.656803 c -1.60929,-0.608207 -4.56716,-1.762683 -4.56716,-1.762683 l -0.0646,-2.454114 5.36298,-1.207678 1.34565,-6.271452 5.93608,4.429704 4.24728,-3.881417 1.60197,7.308081 4.36718,0.752926 -0.83975,2.712496 -3.02823,0.942061 1.16943,17.444413 5.1785,0.0987 2.00969,-80.734609 z" /><path
         style="opacity:1;fill:#ffe204;fill-opacity:1;fill-rule:evenodd;stroke:none;stroke-width:0.4;stroke-linejoin:round;paint-order:stroke fill markers"
         d="m 334.21081,-37.008617 4.65775,-0.91329 3.92885,-0.46806 -1.69131,1.83799 -2.05489,-1.18727 -2.07772,1.68958 z"
         id="path43-9"
         sodipodi:nodetypes="ccccccc" /><path
         style="opacity:1;fill:#ffe204;fill-opacity:1;fill-rule:evenodd;stroke:none;stroke-width:0.4;stroke-linejoin:round;paint-order:stroke fill markers"
         d="m 421.72625,-44.885697 3.76732,0.52514 4.06411,0.20549 -0.89046,1.36992 -2.87684,-1.46125 -2.64853,1.52975 z"
         id="path46-6" /><path
         style="opacity:1;fill:#ffe204;fill-opacity:1;fill-rule:evenodd;stroke:none;stroke-width:0.446636;stroke-linejoin:round;paint-order:stroke fill markers"
         d="m 368.67027,-81.492939 c 8.47588,-1.930466 16.37369,-2.590907 25.18818,-2.421957 0.88341,0.521481 1.98851,1.812952 2.14151,2.829864 -2.77495,2.499085 -4.19694,4.080887 -6.34804,5.685188 -1.83567,-2.032094 -4.15013,-3.887567 -7.00185,-4.971355 -3.07011,1.147393 -4.19425,2.743859 -5.56674,4.283012 -2.69248,-0.537288 -5.3891,-1.05884 -7.75021,-2.85534 -0.63642,-0.988293 -0.61646,-1.757794 -0.66285,-2.549412 z"
         id="path50-9"
         sodipodi:nodetypes="cccccccc" /><path
         id="path53-9"
         style="opacity:1;fill:#ffe204;fill-opacity:1;fill-rule:evenodd;stroke:none;stroke-width:0.446636;stroke-linejoin:round;paint-order:stroke fill markers"
         d="m 382.65778,-62.151762 c -4.41915,0.08326 -7.508,3.926569 -7.56285,8.804114 -0.0435,3.875196 3.11019,7.138725 7.85379,7.03678 4.74359,-0.101978 8.05429,-4.69097 7.74836,-7.699272 -0.30593,-3.008303 -2.2432,-7.648623 -7.13806,-8.107515 -0.30593,-0.02868 -0.60663,-0.03966 -0.90124,-0.03411 z m -0.7307,4.215247 2.85563,0.204122 v 7.036263 l -3.2122,0.458886 z" /></g></g></svg>
