<?xml version="1.0" encoding="UTF-8" standalone="no"?>
<!-- Created with Inkscape (http://www.inkscape.org/) -->

<svg
   width="315"
   height="290"
   viewBox="0 0 315 290"
   version="1.1"
   id="svg1"
   xml:space="preserve"
   xmlns:xlink="http://www.w3.org/1999/xlink"
   xmlns="http://www.w3.org/2000/svg"
   xmlns:svg="http://www.w3.org/2000/svg"><defs
     id="defs1"><linearGradient
       id="linearGradient20"><stop
         style="stop-color:#320d36;stop-opacity:1;"
         offset="0"
         id="stop19" /><stop
         style="stop-color:#550d54;stop-opacity:1;"
         offset="1"
         id="stop20" /></linearGradient><linearGradient
       xlink:href="#linearGradient20"
       id="linearGradient9"
       x1="168.85526"
       y1="2100.6521"
       x2="136.96387"
       y2="2370.2629"
       gradientUnits="userSpaceOnUse"
       gradientTransform="translate(0)" /></defs><g
     id="layer1"
     transform="translate(-14.0369,-2080.2629)"><g
       id="g1"><path
         style="fill:#220a2e;fill-opacity:1;stroke:none;stroke-width:1;stroke-linecap:round;stroke-dasharray:none;stroke-dashoffset:0"
         d="m 312.93026,2165.4546 c 16.08856,-5.9779 16.10664,-6.0491 16.10664,-6.0491 0,0 1.06835,8.8203 -15.81144,16.7871 -5.03971,2.3786 -6.39141,-2.9709 -0.2952,-10.738 z"
         id="path12-1" /><path
         style="fill:#ffe204;fill-opacity:1;stroke:none;stroke-width:1;stroke-linecap:round;stroke-dasharray:none;stroke-dashoffset:0"
         d="m 281.63874,2160.3623 c 0,-5.6088 36.75277,-6.7896 36.08856,0.074 -0.6642,6.8635 -8.92988,51.9557 -9.22509,54.3911 -0.2952,2.4354 -20.57384,4.6415 -20.6642,-0.738 -0.0904,-5.3794 -6.19927,-53.7269 -6.19927,-53.7269 z"
         id="path10-10" /><path
         id="path6-0"
         style="fill:url(#linearGradient9);fill-opacity:1;stroke:none;stroke-width:1;stroke-linecap:round;stroke-dasharray:none;stroke-dashoffset:0"
         d="m 153.62479,2080.3511 c -0.59363,-0.1233 -1.16734,-0.1156 -1.72852,0.012 -11.56819,11.9651 -23.28239,12.3822 -35.1289,2.3613 -5.98416,1.2256 -10.1415,12.9313 -15.48242,29.5508 -29.87099,5.9434 -54.00053,11.9147 -65.64258,16.1719 1.16127,1.8591 4.099426,3.7534 11.38867,3.9355 15.91836,-2.8663 34.21862,-5.8078 52.95313,-8.625 0.34012,6.9222 0.75454,14.0747 1.90039,23.4141 l -13.75173,11.9732 c -17.92471,3.361 -45.08778,14.8959 -61.69654,24.762 -2.87463,26.2339 -12.39939,100.5886 -12.39939,125.2372 l 44.8711,19.4847 6.407677,41.6341 H 208.61206 l 9.70609,-71.7454 17.96875,-6.5333 c 15.24972,-23.7998 31.56138,-46.1595 43.13867,-74.9434 10.24408,-3.3865 9.72213,-9.9411 9.15039,-37.4902 17.46502,-2.6456 18.57122,-7.9196 20.95899,-12.9883 -13.28585,2.2694 -26.89557,2.6211 -36.3086,2.4141 -1.21977,2.6132 -3.30472,5.942 -5.74219,8.4941 0.5764,4.1176 0.61973,14.7334 -0.31835,20.9199 -10.3316,14.5555 -21.37353,30.0213 -31.43165,40.2012 -4.89042,-25.3862 -11.18659,-68.3797 -19.77734,-72.3242 -14.82651,-3.856 -30.1756,-9.0155 -43.98633,-10.332 l -6.46679,-7.7002 c 2.64616,-8.1122 7.52746,-23.4927 6.67773,-34.4014 23.08724,-2.8518 42.22395,-4.8572 52.30469,-5.4043 1.39556,-5.0862 4.03653,-7.3982 7.24609,-9.0371 l 7.13867,-1.4746 c 1.46414,-1.1309 4.11872,-3.1665 4.30664,-5.6719 -23.84916,1.7419 -49.41775,4.7674 -74.32226,8.4063 -7.00422,-13.5539 -11.5229,-19.5304 -15.23047,-20.3008 z m 158.65039,99.4649 c -2.8742,-0.073 -7.40807,2.0969 -11.00586,8.5175 -4.79704,8.5608 -2.90157,13.9447 -1.76367,15.0625 0.86133,0.8461 2.31353,0.8587 3.54883,0.6387 -0.14761,1.476 -0.18298,6.5976 1.46289,7.6933 3.85065,2.5636 13.21911,-11.1447 17.56445,-19.1152 3.17343,-6.642 -5.61,-10.2576 -7.58203,-12.0508 -0.49301,-0.4483 -1.26654,-0.7217 -2.22461,-0.746 z" /><path
         style="fill:#ffe204;fill-opacity:1;stroke-width:3.02362"
         d="m 114.11073,2127.4912 c 13.69989,-3.0291 20.30268,0.1803 33.14642,-2.1673 2.06672,-5.6861 11.48252,-9.3276 19.3412,-8.3147 -7.58981,12.5585 -6.23742,10.504 -21.22202,10.1257 -9.14329,2.7545 -23.40525,7.1001 -31.2656,0.3563 z"
         id="path4-1" /></g></g></svg>
